<!DOCTYPE svg PUBLIC "-//W3C//DTD SVG 1.1//EN" "http://www.w3.org/Graphics/SVG/1.1/DTD/svg11.dtd">

<!-- Uploaded to: SVG Repo, www.svgrepo.com, Transformed by: SVG Repo Mixer Tools -->
<svg fill="#404040" height="64px" width="64px" version="1.1" id="Layer_1" xmlns="http://www.w3.org/2000/svg" xmlns:xlink="http://www.w3.org/1999/xlink" viewBox="0 0 512.00 512.00" xml:space="preserve" stroke="#404040" transform="matrix(1, 0, 0, -1, 0, 0)rotate(180)">

<g id="SVGRepo_bgCarrier" stroke-width="0"/>

<g id="SVGRepo_tracerCarrier" stroke-linecap="round" stroke-linejoin="round" stroke="#fcfcfc" stroke-width="102.4"> <g> <g> <path d="M0,0v512h512V0H0z M195.048,420.571v36.571H54.857v-140.19h36.571v77.762l102.88-102.88l25.86,25.86L117.291,420.571 H195.048z M194.309,220.17L91.429,117.291v77.757H54.857V54.857h140.19v36.571h-77.762L220.169,194.31L194.309,220.17z M457.143,457.143h-140.19v-36.571h77.757l-102.878-102.88l25.86-25.86l102.88,102.883v-77.762h36.571V457.143z M457.143,195.048 h-36.571v-77.757l-102.88,102.88l-25.86-25.86L394.714,91.429h-77.762V54.857h140.19V195.048z"/> </g> </g> </g>

<g id="SVGRepo_iconCarrier"> <g> <g> <path d="M0,0v512h512V0H0z M195.048,420.571v36.571H54.857v-140.19h36.571v77.762l102.88-102.88l25.86,25.86L117.291,420.571 H195.048z M194.309,220.17L91.429,117.291v77.757H54.857V54.857h140.19v36.571h-77.762L220.169,194.31L194.309,220.17z M457.143,457.143h-140.19v-36.571h77.757l-102.878-102.88l25.86-25.86l102.88,102.883v-77.762h36.571V457.143z M457.143,195.048 h-36.571v-77.757l-102.88,102.88l-25.86-25.86L394.714,91.429h-77.762V54.857h140.19V195.048z"/> </g> </g> </g>

</svg>